<?xml version="1.0" ?><svg xmlns="http://www.w3.org/2000/svg" xmlns:xlink="http://www.w3.org/1999/xlink"><symbol viewBox="0 0 32 32" id="arrow" xmlns="http://www.w3.org/2000/svg"><path d="M30.29 19.29L27 22.59V12a11 11 0 0 0-22 0v18h2V12a9 9 0 0 1 18 0v10.59l-3.29-3.3-1.42 1.42 5 5a1 1 0 0 0 1.42 0l5-5z" data-name="1"/></symbol><symbol viewBox="0 0 23 23" id="arrow2" xmlns="http://www.w3.org/2000/svg"><defs><path id="ba" d="M946 4520.5a10.5 10.5 0 1 1-21 0 10.5 10.5 0 0 1 21 0zm-7 0a.7.7 0 0 0-.21-.5l-4.54-4.54a.7.7 0 1 0-.99 1l4.05 4.04-4.05 4.05a.7.7 0 0 0 .99.99l4.54-4.54a.7.7 0 0 0 .2-.5z"/></defs><g transform="translate(-924 -4509)"><use xlink:href="#ba"/><use xlink:href="#ba"/></g></symbol><symbol viewBox="0 0 32 32" id="basket" xmlns="http://www.w3.org/2000/svg"><path d="M30 13h-8.31l-3.31-8.7-1.87.7 3 8h-7.1l3-8-1.78-.7-3.32 8.7H2v2h1.13L5 28.14A1 1 0 0 0 6 29h20a1 1 0 0 0 1-.86L28.87 15H30zm-4.87 14H6.87L5.15 15h21.7z" data-name="2"/></symbol><symbol viewBox="0 0 32 32" id="battery" xmlns="http://www.w3.org/2000/svg"><path d="M27 25H3a1 1 0 0 1-1-1V8a1 1 0 0 1 1-1h24a1 1 0 0 1 1 1v4a2 2 0 0 1 2 2v4a2 2 0 0 1-2 2v4a1 1 0 0 1-1 1zM4 23h22v-4a1 1 0 0 1 1-1h1v-4h-1a1 1 0 0 1-1-1V9H4zm20-12h-2v10h2zm-4 0h-2v10h2zm-4 0h-2v10h2zm-4 0h-2v10h2zm-4 0H6v10h2z" data-name="2"/></symbol><symbol viewBox="0 0 32 32" id="chart" xmlns="http://www.w3.org/2000/svg"><path d="M28 25V10a1 1 0 0 0-1-1h-4a1 1 0 0 0-1 1v15h-2V6a1 1 0 0 0-1-1h-4a1 1 0 0 0-1 1v19h-2V15a1 1 0 0 0-1-1H7a1 1 0 0 0-1 1v10H4V5H2v21a1 1 0 0 0 1 1h27v-2zm-4-14h2v14h-2zm-8-4h2v18h-2zm-8 9h2v9H8z" data-name="2"/></symbol><symbol viewBox="0 0 20 27" id="icon-cart" xmlns="http://www.w3.org/2000/svg"><defs><path id="fa" d="M1494 61v15a3 3 0 0 1-3 3h-12a3 3 0 0 1-3-3V61a3 3 0 0 1 3-3h1.5c0-1.66 2.01-3 4.5-3 2.48 0 4.5 1.34 4.5 3h1.5a3 3 0 0 1 3 3zm-12-3h6c0-1.04-1.34-1.5-3-1.5s-3 .46-3 1.5zm10.5 16.5h-15V76c0 .82.67 1.5 1.5 1.5h12c.82 0 1.5-.68 1.5-1.5zm0-13.5c0-.83-.68-1.5-1.5-1.5h-1.5V64h-1.5v-4.5h-6V64h-1.5v-4.5h-1.5c-.83 0-1.5.67-1.5 1.5v12h15z"/></defs><g transform="translate(-1475 -53)"><use xlink:href="#fa"/><use xlink:href="#fa"/></g></symbol><symbol viewBox="0 0 51 47" id="icon-coffee" xmlns="http://www.w3.org/2000/svg"><defs><path id="ga" d="M782.04 4920.75c0 .69-.55 1.25-1.23 1.25h-43.58c-.68 0-1.23-.56-1.23-1.25 0-.7.55-1.25 1.23-1.25h43.58c.68 0 1.23.56 1.23 1.25zm-26.45-26.35c.05-2.17.81-4.33 2.1-5.95 1.94-2.46 1.98-6.49.08-8.28a1.26 1.26 0 0 1-.06-1.77c.46-.5 1.24-.53 1.74-.06 3.17 3 2.63 8.55.16 11.67-1.82 2.3-2.27 6.37-.16 8.37.5.48.53 1.27.06 1.77a1.22 1.22 0 0 1-1.74.06 7.58 7.58 0 0 1-2.18-5.81zm28.41 3.21v2.4a6.2 6.2 0 0 1-6.15 6.24h-2.76a13.51 13.51 0 0 1-12.68 9.05h-6.77a13.59 13.59 0 0 1-13.48-13.66v-12.4c0-.7.56-1.26 1.24-1.26h7.91c1.6-2.48 1.54-6.13-.25-7.81a1.26 1.26 0 0 1-.06-1.77c.47-.5 1.25-.53 1.75-.06 3.16 3 2.62 8.55.15 11.67-1.82 2.3-2.27 6.37-.15 8.37.5.48.52 1.27.06 1.77-.47.5-1.25.53-1.75.06a7.58 7.58 0 0 1-2.18-5.81c.03-1.35.34-2.7.88-3.92h-5.13v11.16a11.1 11.1 0 0 0 11 11.16h6.78c6.06 0 11-5 11-11.16v-11.16h-9.28c-.68 0-1.23-.56-1.23-1.25s.55-1.25 1.23-1.25h10.52c.68 0 1.23.56 1.23 1.25v2.15h1.97a6.2 6.2 0 0 1 6.15 6.23zm-2.47 0a3.72 3.72 0 0 0-3.68-3.73h-1.97v9.87h1.97a3.72 3.72 0 0 0 3.68-3.74z"/></defs><g transform="translate(-734 -4876)"><use xlink:href="#ga"/><use xlink:href="#ga"/></g></symbol><symbol viewBox="0 0 56 46" id="icon-dish" xmlns="http://www.w3.org/2000/svg"><defs><path id="ha" d="M1387 4920.3c0 .94-.76 1.7-1.69 1.7h-50.62a1.69 1.69 0 0 1 0-3.39h50.62c.93 0 1.69.76 1.69 1.7zm0-8.46v1.7c0 .93-.76 1.69-1.69 1.69h-50.62c-.93 0-1.69-.76-1.69-1.7v-1.69a27.1 27.1 0 0 1 25.31-27.07v-3.38h-3.37a1.69 1.69 0 0 1 0-3.39h10.12a1.69 1.69 0 0 1 0 3.39h-3.37v3.38a27.1 27.1 0 0 1 25.3 27.07zm-3.38 0a23.66 23.66 0 0 0-23.62-23.68 23.66 23.66 0 0 0-23.62 23.68z"/></defs><g transform="translate(-1332 -4877)"><use xlink:href="#ha"/><use xlink:href="#ha"/></g></symbol><symbol viewBox="0 0 55 38" id="icon-folder" xmlns="http://www.w3.org/2000/svg"><defs><path id="ia" d="M1388.74 1146.15v-22.17c0-1.36 1.1-2.48 2.46-2.48h10.8v-1.44a3.7 3.7 0 0 1 3.7-3.73h6.28a3.7 3.7 0 0 1 3.68 3.73v1.44h10.82a2.48 2.48 0 0 1 2.46 2.48v1.66h-26.2a6.8 6.8 0 0 0-5.75 3.6zm15.73-24.65h8.75v-1.44c0-.69-.55-1.24-1.23-1.24h-6.3c-.32 0-.63.12-.86.36-.23.24-.36.55-.36.88zm25.45 28.26a4.33 4.33 0 0 1-3.54 2.22h-35.3c-1.35 0-1.97-1-1.37-2.22l9.5-19.42a4.32 4.32 0 0 1 3.53-2.22h35.3c1.35 0 1.97 1 1.37 2.22z"/></defs><g transform="translate(-1387 -1115)"><use xlink:href="#ia"/><use xlink:href="#ia"/></g></symbol><symbol viewBox="0 0 46 46" id="icon-gear" xmlns="http://www.w3.org/2000/svg"><defs><path id="ja" d="M1130.32 1133.71c-1.44.51-2.84 1.76-3.24 2.74-.4.98-.3 2.85.36 4.23a4.33 4.33 0 0 1-.89 4.58 4.32 4.32 0 0 1-4.57.88c-1.38-.65-3.25-.76-4.24-.35-.98.4-2.22 1.8-2.73 3.24a4.33 4.33 0 0 1-3.87 2.6 4.33 4.33 0 0 1-3.86-2.6c-.51-1.44-1.76-2.83-2.74-3.24-.98-.4-2.85-.3-4.23.35a4.32 4.32 0 0 1-4.57-.88 4.33 4.33 0 0 1-.89-4.58c.66-1.38.76-3.25.36-4.23-.41-.98-1.8-2.23-3.24-2.74a4.33 4.33 0 0 1-2.61-3.86 4.32 4.32 0 0 1 2.6-3.86c1.45-.5 2.84-1.76 3.24-2.74.41-.98.3-2.85-.35-4.23a4.33 4.33 0 0 1 .89-4.58 4.33 4.33 0 0 1 4.57-.88c1.38.65 3.25.76 4.23.35.98-.4 2.23-1.8 2.74-3.24a4.33 4.33 0 0 1 3.86-2.6 4.33 4.33 0 0 1 3.87 2.6c.5 1.44 1.75 2.84 2.74 3.24.98.41 2.85.3 4.23-.35a4.33 4.33 0 0 1 4.57.88 4.33 4.33 0 0 1 .89 4.58c-.66 1.38-.76 3.25-.36 4.23.4.99 1.8 2.23 3.24 2.74 1.44.51 2.6 2.24 2.6 3.86a4.33 4.33 0 0 1-2.6 3.86zm-11.2-3.85a7.99 7.99 0 1 0-15.96-.02 7.99 7.99 0 0 0 15.97.02z"/></defs><g transform="translate(-1088 -1107)"><use xlink:href="#ja"/><use xlink:href="#ja"/></g></symbol><symbol viewBox="0 0 46 47" id="icon-head" xmlns="http://www.w3.org/2000/svg"><defs><path id="ka" d="M549.62 4895.7c0-3.3 1.04-6.4 2.92-8.76 1.96-2.44 4.58-3.78 7.4-3.78 5.69 0 10.31 5.62 10.31 12.54 0 6.92-4.62 12.55-10.31 12.55s-10.32-5.63-10.32-12.55zm2.75 0c0 5.4 3.4 9.8 7.57 9.8s7.56-4.4 7.56-9.8-3.4-9.8-7.56-9.8c-4.17 0-7.57 4.4-7.57 9.8zm27.5 22.45a3.85 3.85 0 0 1-3.85 3.85h-32.17a3.85 3.85 0 0 1-3.85-3.85c0-6.22 5.06-11.28 11.27-11.28a1.37 1.37 0 1 1 0 2.75 8.54 8.54 0 0 0-8.52 8.53c0 .6.5 1.1 1.1 1.1h32.17c.61 0 1.1-.5 1.1-1.1 0-4.7-3.82-8.53-8.52-8.53a1.37 1.37 0 1 1 0-2.75 11.3 11.3 0 0 1 11.27 11.28zm-20.81-37c-.39-.66-.17-1.5.48-1.89a8.88 8.88 0 0 1 4.52-1.26c5.69 0 10.31 5.63 10.31 12.55 0 1.18-.13 2.34-.39 3.45a1.38 1.38 0 0 1-2.67-.62c.2-.91.31-1.86.31-2.83 0-5.4-3.39-9.8-7.56-9.8-1.08 0-2.13.3-3.12.88-.65.38-1.5.17-1.88-.49zm24.94 31.59c0 .55-.11 1.07-.33 1.57a1.38 1.38 0 0 1-2.51-1.12c.06-.14.09-.3.09-.45 0-4.7-3.55-8.62-8.25-8.62a1.37 1.37 0 1 1 0-2.75c6.22 0 11 5.16 11 11.37z"/></defs><g transform="translate(-539 -4876)"><use xlink:href="#ka"/><use xlink:href="#ka"/></g></symbol><symbol viewBox="0 0 47 47" id="icon-heart" xmlns="http://www.w3.org/2000/svg"><defs><path id="la" d="M1183 4891.75c0 12.44-8 23.7-21.4 30.11a1.37 1.37 0 0 1-1.2 0c-13.4-6.4-21.4-17.67-21.4-30.11a13.76 13.76 0 0 1 22-10.99l.2-.13c.2-.15.4-.3.62-.43l.36-.22.68-.4.26-.12c.43-.22.88-.4 1.34-.58l.52-.2.6-.17a14.68 14.68 0 0 1 1.94-.39l.46-.06a13.76 13.76 0 0 1 15.02 13.69zm-2.75 0a11.01 11.01 0 0 0-12.06-10.95l-.47.07-.55.08-.6.14a9.84 9.84 0 0 0-1.03.32l-.3.11c-.23.1-.46.19-.68.3l-.24.11a10.4 10.4 0 0 0-1.54.94l-.15.12a10.96 10.96 0 0 0-4.38 8.76 1.37 1.37 0 1 1-2.75 0c0-3.47 1.3-6.64 3.44-9.07a10.94 10.94 0 0 0-6.19-1.93c-6.07 0-11 4.93-11 11 0 11.18 7.18 21.36 19.25 27.35 12.07-6 19.25-16.17 19.25-27.35zm-2.75 0a1.37 1.37 0 0 1-2.75 0 5.5 5.5 0 0 0-5.5-5.5 1.38 1.38 0 0 1 0-2.75c4.55 0 8.25 3.7 8.25 8.25z"/></defs><g transform="translate(-1137 -4876)"><use xlink:href="#la"/><use xlink:href="#la"/></g></symbol><symbol viewBox="0 0 46 46" id="icon-message" xmlns="http://www.w3.org/2000/svg"><defs><path id="ma" d="M969.25 4902.75c0 .76-.62 1.37-1.38 1.37h-13.74a1.38 1.38 0 0 1 0-2.75h13.74c.76 0 1.38.62 1.38 1.38zm2.75-8.25c0 .76-.62 1.37-1.38 1.37h-19.24a1.37 1.37 0 0 1 0-2.74h19.24c.76 0 1.38.61 1.38 1.37zm11 2.75c0 10.63-9.85 19.25-22 19.25-1.4 0-2.78-.13-4.11-.35l-9.64 5.85v-9.74c-5.02-3.53-8.25-8.94-8.25-15.01 0-10.63 9.85-19.25 22-19.25s22 8.62 22 19.25zm-2.75 0c0-9.11-8.62-16.5-19.25-16.5s-19.25 7.39-19.25 16.5c0 5.59 3.26 10.52 8.22 13.5l-.09 6.38 6.47-3.89c1.5.32 3.04.5 4.65.5 10.63 0 19.25-7.38 19.25-16.49z"/></defs><g transform="translate(-938 -4877)"><use xlink:href="#ma"/><use xlink:href="#ma"/></g></symbol><symbol viewBox="0 0 46 42" id="icon-papers" xmlns="http://www.w3.org/2000/svg"><defs><path id="na" d="M833.29 1124.67l-21.44 11.56-21.44-11.56 21.44-11.56zm-3.99 5.88l3.99 2.15-21.44 11.55-21.44-11.55 3.99-2.15 17.45 9.4zm0 8.02l3.99 2.15-21.44 11.56-21.44-11.56 3.99-2.15 17.45 9.41z"/></defs><g transform="translate(-789 -1112)"><use xlink:href="#na"/><use xlink:href="#na"/></g></symbol><symbol viewBox="0 0 51 51" id="icon-pen" xmlns="http://www.w3.org/2000/svg"><defs><path id="oa" d="M534.67 1123.72l-14.27 14.27-32.87 14.47 14.48-32.87 14.27-14.26a1.59 1.59 0 1 1 2.25 2.25l-13.85 13.84-8.57 19.47 3 3 19.46-8.58 13.85-13.84a1.59 1.59 0 1 1 2.25 2.25zm-20.17 6.5l13.33-13.34a1.59 1.59 0 1 1 2.25 2.25l-13.33 13.34a1.6 1.6 0 0 1-2.25 0 1.6 1.6 0 0 1 0-2.25zm-3.48-3.49l13.33-13.33a1.59 1.59 0 1 1 2.25 2.25L513.26 1129a1.6 1.6 0 0 1-2.24-2.26zm-3.49-3.48l13.34-13.33a1.59 1.59 0 1 1 2.25 2.25l-13.34 13.33a1.59 1.59 0 0 1-2.25 0 1.6 1.6 0 0 1 0-2.25z"/></defs><g transform="translate(-486 -1103)"><use xlink:href="#oa"/><use xlink:href="#oa"/></g></symbol><symbol viewBox="0 0 80 76" id="icon-play" xmlns="http://www.w3.org/2000/svg"><defs><path id="pa" d="M955.93 3685.82a2.06 2.06 0 0 1-2.06-2.06v-29.53a2.06 2.06 0 0 1 3.38-1.58l17.72 14.77a2.06 2.06 0 0 1 0 3.16l-17.72 14.76c-.37.32-.84.48-1.32.48zm2.06-27.19v20.73l12.44-10.36zm2.95 45.37a34.8 34.8 0 0 1-17.1-4.47 2.06 2.06 0 1 1 2.01-3.6 30.99 30.99 0 0 0 37-5.08 30.93 30.93 0 0 0 0-43.7 30.93 30.93 0 0 0-43.7 0 30.93 30.93 0 0 0 0 43.7 2.06 2.06 0 0 1-2.91 2.9 35.06 35.06 0 0 1 0-49.51 35.06 35.06 0 0 1 49.52 0 35.06 35.06 0 0 1 0 49.52 35.1 35.1 0 0 1-24.82 10.24z"/></defs><g transform="translate(-921 -3629)"><use xlink:href="#pa"/><use xlink:href="#pa"/></g></symbol><symbol viewBox="0 0 27 28" id="icon-search" xmlns="http://www.w3.org/2000/svg"><defs><path id="qa" d="M1545.76 78.76c-.3.3-.8.3-1.1 0l-6.21-6.12a10.15 10.15 0 0 1-6.36 2.22c-5.57 0-10.09-4.44-10.09-9.93 0-5.49 4.52-9.93 10.1-9.93 5.57 0 10.09 4.44 10.09 9.93 0 2.56-1 4.9-2.62 6.66l6.2 6.1c.3.29.3.77 0 1.07zm-5.13-13.83c0-4.64-3.82-8.4-8.54-8.4a8.47 8.47 0 0 0-8.54 8.4c0 4.64 3.83 8.4 8.54 8.4a8.47 8.47 0 0 0 8.54-8.4z"/></defs><g transform="translate(-1521 -53)"><use xlink:href="#qa"/><use xlink:href="#qa"/></g></symbol><symbol viewBox="0 0 28 28" id="link" xmlns="http://www.w3.org/2000/svg"><defs><path id="ra" d="M943.5 2652.24l-1.93 1.93-3.18 3.19a6.24 6.24 0 0 1-8.74 0l2.63-2.65c.96.96 2.51.96 3.46 0l2.03-2.02 3.09-3.1a2.45 2.45 0 0 0-3.46-3.45l-2.46 2.45a7.07 7.07 0 0 0-4.9-.37l4.72-4.73a6.18 6.18 0 1 1 8.74 8.75zm-7.65 7.6l-4.62 4.68a6.2 6.2 0 0 1-8.75 0 6.2 6.2 0 0 1 0-8.75l5.12-5.11c.07-.07.15-.16.24-.23a6.2 6.2 0 0 1 8.5.23l-2.64 2.64a2.45 2.45 0 0 0-3.46 0l-5.11 5.12a2.45 2.45 0 0 0 3.46 3.46l2.35-2.36c2 .8 2.55.87 4.9.33z"/></defs><g transform="translate(-919 -2640)"><use xlink:href="#ra"/><use xlink:href="#ra"/></g></symbol><symbol viewBox="0 0 32 32" id="login" xmlns="http://www.w3.org/2000/svg"><path d="M27 3v26a1 1 0 0 1-1 1H6a1 1 0 0 1-1-1v-2h2v1h18V4H7v3H5V3a1 1 0 0 1 1-1h20a1 1 0 0 1 1 1zM12.29 20.29l1.42 1.42 5-5a1 1 0 0 0 0-1.42l-5-5-1.42 1.42 3.3 3.29H5v2h10.59z" data-name="1"/></symbol><symbol viewBox="0 0 29 27" id="lupa" xmlns="http://www.w3.org/2000/svg"><defs><path id="ta" d="M991.42 2648.85c.32.64.04 1.42-.61 1.73a1.325 1.325 0 0 1-1.76-.6 4.15 4.15 0 0 0-3.75-2.3 1.3 1.3 0 0 1-1.31-1.3c0-.72.59-1.3 1.31-1.3a6.76 6.76 0 0 1 6.12 3.77zm8.04 16.32c-.32.32-.75.48-1.17.48-.42 0-.84-.16-1.16-.48l-4.34-4.27a11.22 11.22 0 0 1-6.83 2.32 11.11 11.11 0 0 1-11.18-11.02c0-6.07 5.01-11.01 11.18-11.01 6.16 0 11.18 4.94 11.18 11.01 0 2.37-.77 4.56-2.07 6.36l4.39 4.32a1.6 1.6 0 0 1 0 2.3zm-13.5-4.54a8.58 8.58 0 0 0 6.76-3.3 8.29 8.29 0 0 0 1.79-5.13 8.5 8.5 0 0 0-8.55-8.42 8.5 8.5 0 0 0-8.55 8.42 8.5 8.5 0 0 0 8.55 8.43z"/></defs><g transform="translate(-973 -2640)"><use xlink:href="#ta"/><use xlink:href="#ta"/></g></symbol><symbol viewBox="0 0 66 59" id="waxem-logo" xmlns="http://www.w3.org/2000/svg"><defs><path id="ua" d="M407.85 6450.9l-5.25-9.19h10.5zm-1.31.77h-10.5l5.25-9.19zm2.63 0l5.25-9.19 5.26 9.2zm10.5 1.53l-5.25 9.19-5.25-9.19zm-13.13 0l-5.25 9.19-5.26-9.19zm-11.82.77l5.25 9.18h-10.5zm21.02 9.18l5.25-9.18 5.25 9.18zm-2.63-22.97H402.6l5.25-9.19zm2.63 24.5h10.5l-5.25 9.2zm-26.28 0h10.51l-5.25 9.2zm-1.3.77l5.24 9.2h-10.5zm34.14 9.2l5.26-9.2 5.25 9.2zm10.51 1.52l-5.25 9.19-5.26-9.19zm-13.13 0l-5.26 9.19-5.25-9.19zm-36.78 0h10.5l-5.25 9.19zm-1.32.77l5.26 9.19h-10.5zm26.27 0l5.26 9.19H402.6zm13.14 0l5.25 9.19h-10.5zm18.39 9.19h-10.5l5.25-9.2z"/></defs><g transform="translate(-375 -6429)"><use xlink:href="#ua"/><use xlink:href="#ua"/></g></symbol></svg>